#!OML:ASF H:\LiuWeirdWalks\Patient Classification 1\Patient 1\Session 1\male.ASF
:FULLY-SPECIFIED
:DEGREES
1090
root 2.54805 18.0139 16.911 1.66001 8.26139 -11.3321
lowerback 14.2491 -2.58328 -14.4039
upperback 1.51507 -5.98098 -5.91789
thorax -5.56111 -2.62437 2.76945
lowerneck -15.0931 1.41054 9.96318
upperneck 17.5754 -1.8937 7.14189
head 8.03653 0.477828 0.546606
rclavicle 1.98785e-014 -1.27222e-014
rhumerus -18.0064 -30.298 1.24594
rradius 28.3975
rwrist 8.30062
rhand -17.4833 2.44338
rfingers 7.12502
rthumb 8.76893 -27.3545
lclavicle 1.98785e-014 -1.27222e-014
lhumerus -36.744 35.648 30.2394
lradius 36.5372
lwrist 9.0755
lhand -19.2163 -2.74626
lfingers 7.12502
lthumb 7.09636 27.1148
rfemur -21.4938 -15.7949 25.8173
rtibia 39.2294
rfoot -11.5153 -23.9588
rtoes -4.25899
lfemur -9.00248 -8.61865 -4.63264
ltibia 31.5384
lfoot -13.4018 20.6219
ltoes -10.3913
1091
root 2.55526 18.0106 16.973 1.70975 8.14886 -10.929
lowerback 14.2554 -2.61091 -14.5114
upperback 1.44459 -6.04373 -5.88762
thorax -5.61885 -2.64553 2.87091
lowerneck -14.8261 1.50037 10.2822
upperneck 17.5328 -1.7442 6.85394
head 7.97175 0.532718 0.414961
rclavicle 6.59965e-014 -6.36111e-015
rhumerus -17.6634 -30.6376 0.903479
rradius 27.6531
rwrist 9.24973
rhand -17.0493 2.67323
rfingers 7.12502
rthumb 9.18777 -27.1066
lclavicle 6.59965e-014 -6.36111e-015
lhumerus -36.9776 35.5575 29.5272
lradius 36.5988
lwrist 9.06788
lhand -19.1364 -2.86719
lfingers 7.12502
lthumb 7.17354 26.9912
rfemur -22.0203 -15.4685 25.2196
rtibia 38.9445
rfoot -11.3384 -23.9322
rtoes -4.35727
lfemur -8.57869 -8.51081 -5.1178
ltibia 31.2419
lfoot -13.4185 20.6178
ltoes -10.482
1092
root 2.56324 18.0071 17.0363 1.75458 8.02153 -10.5046
lowerback 14.2402 -2.59756 -14.5763
upperback 1.39013 -6.03985 -5.85008
thorax -5.66021 -2.63733 2.94547
lowerneck -14.6092 1.53587 10.4849
upperneck 17.4741 -1.65423 6.602
head 7.9103 0.555646 0.307149
rclavicle -2.38542e-014 -3.18055e-014
rhumerus -17.59 -30.8132 0.658348
rradius 27.2542
rwrist 9.7173
rhand -16.7802 2.83087
rfingers 7.12502
rthumb 9.44747 -26.9374
lclavicle -2.38542e-014 -3.18055e-014
lhumerus -37.0533 35.4656 28.956
lradius 36.6449
lwrist 9.07576
lhand -19.0784 -2.88694
lfingers 7.12502
lthumb 7.2295 26.9696
rfemur -22.5334 -15.1514 24.593
rtibia 38.6633
rfoot -11.1523 -23.8914
rtoes -4.444
lfemur -8.13201 -8.39572 -5.63143
ltibia 30.9319
lfoot -13.4401 20.6115
ltoes -10.5603
1093
root 2.57197 18.0038 17.1001 1.80608 7.88819 -10.037
lowerback 14.211 -2.52214 -14.6037
upperback 1.362 -5.94169 -5.79473
thorax -5.68073 -2.58697 3.00298
lowerneck -14.5405 1.48561 10.4384
upperneck 17.4516 -1.67038 6.45389
head 7.8863 0.527457 0.262464
rclavicle -2.14687e-014 -3.81667e-014
rhumerus -17.8443 -30.8301 0.57276
rradius 27.2916
rwrist 9.51256
rhand -16.7735 2.61285
rfingers 7.12502
rthumb 9.45393 -27.1551
lclavicle -2.14687e-014 -3.81667e-014
lhumerus -36.8969 35.416 28.6263
lradius 36.6547
lwrist 9.07866
lhand -19.0556 -2.83935
lfingers 7.12502
lthumb 7.25146 27.0164
rfemur -23.046 -14.8614 23.9185
rtibia 38.382
rfoot -10.9469 -23.8307
rtoes -4.56034
lfemur -7.68186 -8.27532 -6.19726
ltibia 30.6149
lfoot -13.4574 20.6031
ltoes -10.6415
1094
root 2.58041 18.0001 17.1647 1.86305 7.73587 -9.55614
lowerback 14.1561 -2.40041 -14.5921
upperback 1.34668 -5.76933 -5.72251
thorax -5.68625 -2.50334 3.04436
lowerneck -14.5327 1.36649 10.2031
upperneck 17.45 -1.76536 6.39002
head 7.87942 0.460143 0.267263
rclavicle -1.31198e-014 5.725e-014
rhumerus -18.3334 -30.642 0.576129
rradius 27.673
rwrist 8.68437
rhand -17.0152 2.13464
rfingers 7.12502
rthumb 9.22066 -27.6438
lclavicle -1.31198e-014 5.725e-014
lhumerus -36.5985 35.3993 28.4261
lradius 36.6172
lwrist 8.93423
lhand -18.9778 -2.84796
lfingers 7.12502
lthumb 7.32657 27.0052
rfemur -23.5569 -14.5553 23.2361
rtibia 38.0914
rfoot -10.7242 -23.7794
rtoes -4.65491
lfemur -7.23136 -8.13658 -6.77599
ltibia 30.2949
lfoot -13.4634 20.5936
ltoes -10.7466
1095
root 2.58879 17.9961 17.229 1.92849 7.57747 -9.07004
lowerback 14.1091 -2.2714 -14.5592
upperback 1.32527 -5.58618 -5.64099
thorax -5.70584 -2.41377 3.0835
lowerneck -14.5642 1.2419 9.9454
upperneck 17.4779 -1.86735 6.30833
head 7.88902 0.388853 0.269412
rclavicle 4.37326e-015 3.18055e-015
rhumerus -18.8413 -30.4171 0.586157
rradius 28.0922
rwrist 7.74863
rhand -17.3388 1.6305
rfingers 7.12502
rthumb 8.90844 -28.1614
lclavicle 4.37326e-015 3.18055e-015
lhumerus -36.256 35.3677 28.2538
lradius 36.5837
lwrist 8.87645
lhand -18.9244 -2.81078
lfingers 7.12502
lthumb 7.37817 27.0406
rfemur -24.0707 -14.2547 22.5569
rtibia 37.7829
rfoot -10.4647 -23.731
rtoes -4.72045
lfemur -6.79494 -7.99319 -7.36013
ltibia 29.9777
lfoot -13.4526 20.5886
ltoes -10.8772
